<svg width="18" height="14" viewBox="0 0 18 14" fill="none" xmlns="http://www.w3.org/2000/svg">
<path d="M17.9998 1.70478C17.3257 1.98925 16.6108 2.17597 15.8787 2.25875C16.6412 1.82334 17.2267 1.13386 17.5024 0.312345C16.7776 0.722154 15.9845 1.01089 15.1574 1.16608C14.4838 0.482355 13.5241 0.0550537 12.4619 0.0550537C10.4224 0.0550537 8.76885 1.63029 8.76885 3.57314C8.76885 3.84892 8.80155 4.1174 8.86447 4.37496C5.79533 4.22819 3.07424 2.82759 1.25279 0.699053C0.934982 1.21866 0.752873 1.82307 0.752873 2.46774C0.752873 3.68835 1.40488 4.76515 2.39572 5.39608C1.80928 5.37859 1.23574 5.22769 0.72299 4.95599C0.722779 4.97073 0.722779 4.98546 0.722779 5.00027C0.722779 6.70485 1.99572 8.12682 3.68504 8.45003C3.14124 8.59092 2.57082 8.61154 2.01737 8.51031C2.48727 9.90803 3.85112 10.9251 5.46705 10.9536C4.20318 11.8972 2.61081 12.4597 0.880701 12.4597C0.582576 12.4597 0.28867 12.443 -0.000244141 12.4105C1.63403 13.4087 3.57515 13.9911 5.66062 13.9911C12.4533 13.9911 16.1677 8.63022 16.1677 3.98115C16.1677 3.82855 16.1642 3.67683 16.157 3.52598C16.88 3.02807 17.504 2.41135 17.9998 1.70478Z" fill="white"/>
</svg>
